<svg xmlns="http://www.w3.org/2000/svg" xmlns:xlink="http://www.w3.org/1999/xlink" width="2181.896" height="849.132" viewBox="0 0 2181.896 849.132">
  <defs>
    <linearGradient id="linear-gradient" y1="0.5" x2="1" y2="0.5" gradientUnits="objectBoundingBox">
      <stop offset="0" stop-color="#19576b"/>
      <stop offset="0.019" stop-color="#296275"/>
      <stop offset="0.075" stop-color="#558392"/>
      <stop offset="0.138" stop-color="#7ea0ac"/>
      <stop offset="0.205" stop-color="#a1bac2"/>
      <stop offset="0.277" stop-color="#becfd5"/>
      <stop offset="0.357" stop-color="#d6e1e4"/>
      <stop offset="0.448" stop-color="#e8eef0"/>
      <stop offset="0.556" stop-color="#f5f7f8"/>
      <stop offset="0.697" stop-color="#fcfdfd"/>
      <stop offset="1" stop-color="#fff"/>
    </linearGradient>
    <linearGradient id="linear-gradient-3" x1="0" y1="0.5" x2="1" y2="0.5" xlink:href="#linear-gradient"/>
    <linearGradient id="linear-gradient-17" x1="0" y1="0.5" x2="1" y2="0.5" xlink:href="#linear-gradient"/>
    <linearGradient id="linear-gradient-33" y1="0.5" x2="1" y2="0.5" gradientUnits="objectBoundingBox">
      <stop offset="0" stop-color="#fff"/>
      <stop offset="0.38" stop-color="#fdfdfd"/>
      <stop offset="0.518" stop-color="#f6f8f9"/>
      <stop offset="0.615" stop-color="#eaf0f1"/>
      <stop offset="0.694" stop-color="#d9e3e6"/>
      <stop offset="0.762" stop-color="#c3d3d8"/>
      <stop offset="0.822" stop-color="#a8bfc7"/>
      <stop offset="0.876" stop-color="#87a7b2"/>
      <stop offset="0.926" stop-color="#628c9a"/>
      <stop offset="0.97" stop-color="#386e7f"/>
      <stop offset="1" stop-color="#19576b"/>
    </linearGradient>
    <linearGradient id="linear-gradient-36" x1="0" y1="0.5" x2="1" y2="0.5" xlink:href="#linear-gradient-33"/>
    <linearGradient id="linear-gradient-38" x1="0" y1="0.5" x2="1" y2="0.5" xlink:href="#linear-gradient-33"/>
    <linearGradient id="linear-gradient-40" x1="0" y1="0.5" x2="1" y2="0.5" xlink:href="#linear-gradient-33"/>
  </defs>
  <g id="Group_284" data-name="Group 284" transform="translate(236.824 -62.001)">
    <g id="line_circle" data-name="line circle" transform="translate(-5466)">
      <path id="Path_572" data-name="Path 572" d="M6555.618,662.928a149.586,149.586,0,1,0-149.584,149.585A149.586,149.586,0,0,0,6555.618,662.928Z" fill="none" stroke="#707070" stroke-miterlimit="10" stroke-width="1"/>
      <path id="Path_573" data-name="Path 573" d="M6608.1,662.928c0-111.6-90.47-202.07-202.067-202.07s-202.072,90.47-202.072,202.07S6294.432,865,6406.034,865,6608.1,774.527,6608.1,662.928Z" fill="none" stroke="#707070" stroke-miterlimit="10" stroke-width="1" stroke-dasharray="10"/>
      <path id="Path_574" data-name="Path 574" d="M6653.737,662.928c0-136.8-110.9-247.707-247.7-247.707s-247.708,110.9-247.708,247.707,110.9,247.705,247.708,247.705S6653.737,799.731,6653.737,662.928Z" fill="none" stroke="#707070" stroke-miterlimit="10" stroke-width="1"/>
    </g>
    <path id="Path_575" data-name="Path 575" d="M5229.5,606.905s450.119,151.891,590.591,38.25,223.3-150.277,387.886-93.038,421.593,511.359,664.8,188.964c324.188-429.749,400.958-35.011,537.813,40.968" transform="translate(-5466)" fill="#fff" stroke="#006c85" stroke-miterlimit="10" stroke-width="2" opacity="0.6"/>
    <g id="Group_255" data-name="Group 255" transform="translate(-5466)">
      <path id="Path_576" data-name="Path 576" d="M6922.835,160.187a6.749,6.749,0,1,1-6.748-6.75A6.749,6.749,0,0,1,6922.835,160.187Z" fill="url(#linear-gradient)"/>
      <circle id="Ellipse_18" data-name="Ellipse 18" cx="6.75" cy="6.75" r="6.75" transform="translate(7024.101 180.628)" fill="url(#linear-gradient)"/>
      <path id="Path_577" data-name="Path 577" d="M6747.342,255.225a6.749,6.749,0,1,1-6.748-6.75A6.749,6.749,0,0,1,6747.342,255.225Z" fill="url(#linear-gradient-3)"/>
      <g id="Group_247" data-name="Group 247">
        <path id="Path_578" data-name="Path 578" d="M6948.176,362.77l56.835,56.835h69.133L7127.771,366h77.619l45.537-45.532-3-2.984-44.285,44.275h-77.637L7072.4,415.377h-65.637l-56.826-56.844H6843.874l-47.692,47.708a7.946,7.946,0,1,0,3.556,2.422l45.881-45.893Z" fill="url(#linear-gradient-3)"/>
        <path id="Path_579" data-name="Path 579" d="M6800.592,413.467a6.749,6.749,0,1,1-6.75-6.75A6.751,6.751,0,0,1,6800.592,413.467Z" fill="url(#linear-gradient-3)"/>
      </g>
      <g id="Group_248" data-name="Group 248">
        <path id="Path_580" data-name="Path 580" d="M7324.945,515.879H7241.73l-38.684-38.668h-88.464l-44.526,44.534H6959.315L6881.96,444.4H6756.1a7.946,7.946,0,1,0,0,4.231h124.107l77.343,77.349h114.263l44.514-44.535H7201.3l38.674,38.676h83.193l79.016,79,2.984-2.988Z" fill="url(#linear-gradient-3)"/>
        <circle id="Ellipse_19" data-name="Ellipse 19" cx="6.748" cy="6.748" r="6.748" transform="translate(6741.428 439.719)" fill="url(#linear-gradient-3)"/>
      </g>
      <g id="Group_249" data-name="Group 249">
        <path id="Path_581" data-name="Path 581" d="M7152.665,405.146l-40.412,40.424H6948.76L6914.778,411.6h-72.956a7.954,7.954,0,1,0,0,4.219h71.2L6947,449.794h167l40.441-40.426h83.783l123.3-123.305-2.988-2.993-122.08,122.076Z" fill="url(#linear-gradient-3)"/>
        <path id="Path_582" data-name="Path 582" d="M6840.592,413.467a6.749,6.749,0,1,1-6.75-6.75A6.751,6.751,0,0,1,6840.592,413.467Z" fill="url(#linear-gradient-3)"/>
      </g>
      <g id="Group_250" data-name="Group 250">
        <path id="Path_583" data-name="Path 583" d="M6926.776,62,6834.3,154.476h-121.76a7.95,7.95,0,1,0,0,4.245h123.515L6929.78,65Z" fill="#fff"/>
        <path id="Path_584" data-name="Path 584" d="M6711.063,156.676a6.749,6.749,0,1,1-6.75-6.75A6.75,6.75,0,0,1,6711.063,156.676Z" fill="url(#linear-gradient-3)"/>
      </g>
      <path id="Path_585" data-name="Path 585" d="M7171.394,224.131a7.945,7.945,0,0,0-12.867,8.882l-83.664,83.657H6799.485L6697.664,418.49a8.515,8.515,0,1,0,3.041,2.936L6801.231,320.9h275.39l84.607-84.618a7.952,7.952,0,0,0,10.166-12.149Z" fill="url(#linear-gradient-3)"/>
      <path id="Path_586" data-name="Path 586" d="M6699.924,425.8a6.748,6.748,0,1,1-6.748-6.749A6.748,6.748,0,0,1,6699.924,425.8Z" fill="url(#linear-gradient-3)"/>
      <path id="Path_587" data-name="Path 587" d="M7172.322,229.949a6.749,6.749,0,1,1-6.748-6.75A6.75,6.75,0,0,1,7172.322,229.949Z" fill="url(#linear-gradient-3)"/>
      <g id="Group_251" data-name="Group 251">
        <path id="Path_588" data-name="Path 588" d="M7022.47,654.023H6915.829l-83.208-83.21H6713.932a7.994,7.994,0,1,0-.289,4.228h117.221l83.215,83.21h106.628l19.353,19.336h187.266V673.35H7041.81Z" fill="url(#linear-gradient-3)"/>
        <path id="Path_589" data-name="Path 589" d="M6712.516,572.449a6.75,6.75,0,1,1-6.75-6.75A6.749,6.749,0,0,1,6712.516,572.449Z" fill="url(#linear-gradient-3)"/>
      </g>
      <path id="Path_590" data-name="Path 590" d="M7010.705,781.168,6988.443,758.9H6859.516l-96.076-96.1H6661.906a7.7,7.7,0,1,0,.365,4.219h99.411l96.1,96.1H6986.7L7008.96,785.4h118.719v-4.228Z" fill="url(#linear-gradient-3)"/>
      <path id="Path_591" data-name="Path 591" d="M6659.054,664.885a4.319,4.319,0,1,1-4.32-4.32A4.32,4.32,0,0,1,6659.054,664.885Z" fill="url(#linear-gradient-17)"/>
      <g id="Group_252" data-name="Group 252">
        <path id="Path_592" data-name="Path 592" d="M6926.837,588.483H7058l54.966,54.976,3-2.98-56.22-56.224H6926.837a7.95,7.95,0,1,0,0,4.228Z" fill="url(#linear-gradient-3)"/>
        <path id="Path_593" data-name="Path 593" d="M6925.315,586.14a6.749,6.749,0,1,1-6.75-6.75A6.749,6.749,0,0,1,6925.315,586.14Z" fill="url(#linear-gradient-3)"/>
      </g>
      <path id="Path_594" data-name="Path 594" d="M6999.351,290.491a9.517,9.517,0,1,0-.182-5.041H6750.65l-45.21,45.2a9.51,9.51,0,1,0,3.389,3.758l43.908-43.916Z" fill="url(#linear-gradient-3)"/>
      <path id="Path_595" data-name="Path 595" d="M7014.789,288.05a6.748,6.748,0,1,1-6.749-6.75A6.748,6.748,0,0,1,7014.789,288.05Z" fill="url(#linear-gradient-3)"/>
      <path id="Path_596" data-name="Path 596" d="M6707.307,338.047a6.75,6.75,0,1,1-6.75-6.749A6.749,6.749,0,0,1,6707.307,338.047Z" fill="url(#linear-gradient-3)"/>
      <g id="Group_253" data-name="Group 253">
        <path id="Path_597" data-name="Path 597" d="M6530.6,299.692a7.925,7.925,0,0,0,7.643-5.83h67.285l91.393-91.407H6966.46l66.8-66.795h94.922l53.762-53.766a7.959,7.959,0,1,0-2.981-2.984l-52.525,52.52h-94.922l-66.813,66.8H6695.171l-91.4,91.4h-65.535a7.94,7.94,0,1,0-7.641,10.058Z" fill="url(#linear-gradient-3)"/>
        <path id="Path_598" data-name="Path 598" d="M7193.072,75.4a6.749,6.749,0,1,1-6.75-6.749A6.75,6.75,0,0,1,7193.072,75.4Z" fill="url(#linear-gradient-3)"/>
        <path id="Path_599" data-name="Path 599" d="M6537.072,292.154a6.748,6.748,0,1,1-6.75-6.75A6.75,6.75,0,0,1,6537.072,292.154Z" fill="url(#linear-gradient-3)"/>
      </g>
      <g id="Group_254" data-name="Group 254">
        <path id="Path_600" data-name="Path 600" d="M6918.787,440.516a7.95,7.95,0,1,0-3.068,13.145l38.316,38.321H7051.6a7.947,7.947,0,1,0,0-4.215h-95.821l-36.518-36.532A7.961,7.961,0,0,0,6918.787,440.516Z" fill="url(#linear-gradient-3)"/>
        <path id="Path_601" data-name="Path 601" d="M7066.072,489.949a6.749,6.749,0,1,1-6.75-6.75A6.751,6.751,0,0,1,7066.072,489.949Z" fill="url(#linear-gradient-3)"/>
        <path id="Path_602" data-name="Path 602" d="M6919.656,445.615a6.748,6.748,0,1,1-6.75-6.75A6.749,6.749,0,0,1,6919.656,445.615Z" fill="url(#linear-gradient-3)"/>
      </g>
      <path id="Path_603" data-name="Path 603" d="M6867.36,478.8a6.749,6.749,0,1,1-6.748-6.75A6.751,6.751,0,0,1,6867.36,478.8Z" fill="url(#linear-gradient-3)"/>
      <path id="Path_604" data-name="Path 604" d="M6992.97,705.819a6.749,6.749,0,1,1-6.75-6.749A6.749,6.749,0,0,1,6992.97,705.819Z" fill="url(#linear-gradient-3)"/>
      <path id="Path_605" data-name="Path 605" d="M7190.57,69.983a6.749,6.749,0,1,1-6.75-6.749A6.749,6.749,0,0,1,7190.57,69.983Z" fill="url(#linear-gradient-3)"/>
      <path id="Path_606" data-name="Path 606" d="M6661.486,666.062a6.749,6.749,0,1,1-6.748-6.75A6.749,6.749,0,0,1,6661.486,666.062Z" fill="url(#linear-gradient-3)"/>
    </g>
    <g id="Group_257" data-name="Group 257" transform="translate(-5466)">
      <path id="Path_608" data-name="Path 608" d="M6197.173,698.824a35.786,35.786,0,1,0-35.787,35.79A35.787,35.787,0,0,0,6197.173,698.824Z" fill="#006c85"/>
      <path id="Path_609" data-name="Path 609" d="M6172.388,719.145l-15.551-6.941,12.575-29.336-18.747,26.585-13.531-6.04,36.155-26.707Zm-20.074,4.57-2.285-10.039,8.67,3.3Z" fill="#fff"/>
    </g>
    <g id="Group_258" data-name="Group 258" transform="translate(-5466)">
      <path id="Path_610" data-name="Path 610" d="M6677.669,757.391a33.581,33.581,0,1,0-33.582,33.577A33.58,33.58,0,0,0,6677.669,757.391Z" fill="#d67a3d"/>
      <path id="Path_611" data-name="Path 611" d="M6660.008,743.886h-28.321a4.357,4.357,0,0,0-4.354,4.358V763.49a4.356,4.356,0,0,0,4.354,4.358h2.18v7.624a1.089,1.089,0,0,0,1.86.77l9.031-8.394h15.25a4.359,4.359,0,0,0,4.358-4.358V748.244a4.36,4.36,0,0,0-4.358-4.358m-25.054,6.535h17.429a1.089,1.089,0,0,1,0,2.179h-17.429a1.089,1.089,0,0,1,0-2.179m8.717,10.892h-8.717a1.089,1.089,0,0,1,0-2.177h8.717a1.089,1.089,0,0,1,0,2.177m13.07-4.356h-21.787a1.089,1.089,0,0,1,0-2.179h21.787a1.089,1.089,0,0,1,0,2.179" fill="#fff"/>
    </g>
    <g id="Group_263" data-name="Group 263" transform="translate(-5466)">
      <path id="Path_612" data-name="Path 612" d="M6210.607,538.174a27.957,27.957,0,1,0-27.957,27.956A27.957,27.957,0,0,0,6210.607,538.174Z" fill="#d67a3d"/>
      <g id="Group_262" data-name="Group 262">
        <g id="Group_261" data-name="Group 261">
          <g id="Group_260" data-name="Group 260">
            <g id="Group_259" data-name="Group 259">
              <path id="Path_613" data-name="Path 613" d="M6167.017,553.592l4.68-5h19.068v-5.342h-18.207V530.78h-8.312v17.811h2.771Z" fill="#fff"/>
              <path id="Path_614" data-name="Path 614" d="M6193.31,542.259l4.777,5.282v-5.282h2.969v-18.4h-27.508v18.4h19.762Zm3.205-11.122a2.093,2.093,0,1,1-2.092,2.093,2.092,2.092,0,0,1,2.092-2.093m-17.6,4.187a2.093,2.093,0,1,1,2.092-2.094,2.094,2.094,0,0,1-2.092,2.094m5.864,0a2.093,2.093,0,1,1,2.093-2.094,2.093,2.093,0,0,1-2.093,2.094m5.867,0a2.093,2.093,0,1,1,0-4.187c.039,0,.076.005.115.007a2.089,2.089,0,0,1,0,4.173.89.89,0,0,1-.115.007" fill="#fff"/>
            </g>
          </g>
        </g>
      </g>
    </g>
    <g id="Group_266" data-name="Group 266" transform="translate(-5466)">
      <path id="Path_615" data-name="Path 615" d="M6307.087,750.972A24.882,24.882,0,1,0,6281.48,775.1,24.879,24.879,0,0,0,6307.087,750.972Z" fill="#d67a3d"/>
      <g id="Group_265" data-name="Group 265">
        <g id="Group_264" data-name="Group 264">
          <path id="Path_616" data-name="Path 616" d="M6276.564,742.843a9.534,9.534,0,0,1,11.748-1.039c-1.281,1.2-2.762,2.59-2.762,2.59-1.035,1.176.069,1.9.641,1.9l6.713.2c.354.01.643.02.643.02l.649.019,1.3.038a.644.644,0,0,0,.664-.624l.273-9.225a1.021,1.021,0,0,0-1.82-.773s-1.633,1.493-2.757,2.544a14.272,14.272,0,0,0-23.037,11.475l4.773.142a9.488,9.488,0,0,1,2.973-7.266" fill="#fff"/>
          <path id="Path_617" data-name="Path 617" d="M6292.268,749.056a9.509,9.509,0,0,1-14.72,8.3c1.282-1.2,2.758-2.589,2.758-2.589,1.041-1.174-.066-1.9-.641-1.9l-6.707-.2-.644-.02-.649-.019-1.3-.039a.646.646,0,0,0-.664.626l-.274,9.225a1.023,1.023,0,0,0,1.823.772s1.626-1.495,2.753-2.545a14.271,14.271,0,0,0,23.038-11.473l-4.773-.14Z" fill="#fff"/>
        </g>
      </g>
    </g>
    <g id="Group_268" data-name="Group 268" transform="translate(-5466)">
      <path id="Path_618" data-name="Path 618" d="M6573.837,623.054a32.289,32.289,0,1,0-32.288,32.289A32.289,32.289,0,0,0,6573.837,623.054Z" fill="#006c85"/>
      <g id="Group_267" data-name="Group 267">
        <path id="Path_619" data-name="Path 619" d="M6526.871,635.4l-1.339,1.38,2.912,2.828,1.339-1.381a11.07,11.07,0,0,0,4.289,1.7l.028,1.924,4.057-.06-.028-1.922a11.075,11.075,0,0,0,4.237-1.828l1.381,1.339,2.825-2.91-1.378-1.34a11.069,11.069,0,0,0,1.7-4.289l1.923-.027-.06-4.057-1.923.028a11.055,11.055,0,0,0-1.827-4.237l1.341-1.381-2.912-2.826-1.339,1.379a11.054,11.054,0,0,0-4.289-1.7l-.029-1.922-4.055.058.028,1.924a11.085,11.085,0,0,0-4.239,1.826l-1.379-1.338-2.826,2.91,1.378,1.34a11.111,11.111,0,0,0-1.7,4.288l-1.925.029.06,4.057,1.924-.028a11.092,11.092,0,0,0,1.826,4.236m8.95-14.631a8.206,8.206,0,1,1-8.087,8.326,8.207,8.207,0,0,1,8.087-8.326" fill="#fff"/>
        <path id="Path_620" data-name="Path 620" d="M6558.727,611.448l1.2-.533-1.322-2.975-1.2.534a7.541,7.541,0,0,0-1.93-1.836l.47-1.227-3.037-1.169-.47,1.226a7.6,7.6,0,0,0-2.662.067l-.535-1.2-2.976,1.321.533,1.2a7.521,7.521,0,0,0-1.834,1.929l-1.225-.473-1.17,3.038,1.225.471a7.53,7.53,0,0,0,.067,2.661l-1.2.536,1.317,2.973,1.2-.533a7.552,7.552,0,0,0,1.929,1.835l-.471,1.227,3.039,1.169.473-1.226a7.606,7.606,0,0,0,2.658-.067l.534,1.2,2.976-1.321-.534-1.2a7.525,7.525,0,0,0,1.837-1.929l1.227.474,1.166-3.037-1.226-.474a7.387,7.387,0,0,0-.068-2.661m-5.365,6.164a5.084,5.084,0,1,1,2.582-6.708,5.048,5.048,0,0,1-2.582,6.708" fill="#fff"/>
      </g>
    </g>
    <g id="Group_270" data-name="Group 270" transform="translate(-5466)">
      <path id="Path_621" data-name="Path 621" d="M6469.335,522.145a19.114,19.114,0,1,0-19.115,19.113A19.113,19.113,0,0,0,6469.335,522.145Z" fill="#006c85"/>
      <g id="Group_269" data-name="Group 269">
        <path id="Path_622" data-name="Path 622" d="M6462.638,528.349H6437.8v2.289h24.835Zm-1.1,1.42h-2.015v-.551h2.015Z" fill="#fff"/>
        <path id="Path_623" data-name="Path 623" d="M6461.47,513.65h-22.5v14h22.5Zm-2.5,12.006h-17.505V515.642h17.505Z" fill="#fff"/>
      </g>
    </g>
    <g id="Group_272" data-name="Group 272" transform="translate(-5466)">
      <path id="Path_624" data-name="Path 624" d="M6338.526,563.433a29.374,29.374,0,1,0-29.373,29.371A29.372,29.372,0,0,0,6338.526,563.433Z" fill="#d67a3d"/>
      <g id="Group_271" data-name="Group 271">
        <path id="Path_625" data-name="Path 625" d="M6310.136,552.028a11.719,11.719,0,0,1,7.48,2.809l-3.106,3.02,11.756,1.469-1.137-11.788-3.084,2.99a17.937,17.937,0,0,0-24.6.4l4.306,4.435A11.692,11.692,0,0,1,6310.136,552.028Z" fill="#fff"/>
        <path id="Path_626" data-name="Path 626" d="M6297,561.8l4.158,1.179-4.6-10.919-9.644,6.883,4.137,1.176a17.929,17.929,0,0,0,12.65,21.106l1.682-5.948A11.805,11.805,0,0,1,6297,561.8Z" fill="#fff"/>
        <path id="Path_627" data-name="Path 627" d="M6326.6,560.322l-5.991,1.516a11.788,11.788,0,0,1-7.479,14l-1.06-4.19-7.151,9.444L6315.708,586l-1.055-4.17a17.943,17.943,0,0,0,11.952-21.509Z" fill="#fff"/>
      </g>
    </g>
    <g id="Group_273" data-name="Group 273" transform="translate(-5466)">
      <path id="Path_628" data-name="Path 628" d="M6397.334,422.216a28.788,28.788,0,1,0-28.787,28.79A28.787,28.787,0,0,0,6397.334,422.216Z" fill="#006c85"/>
      <path id="Path_629" data-name="Path 629" d="M6385.061,421.685v-2.161h1.822v-1.106L6368.545,406.1l-18.336,12.314v1.106h1.825v2.161h2.071v11.793h-2.071v2.232h-1.825v2.619h36.674V435.71h-1.822v-2.232h-2.073V421.685Zm-22.752,11.793h-3.928V421.685h3.928Zm8.2,0h-3.927V421.685h3.927Zm8.2,0h-3.926V421.685h3.926Z" fill="#fff"/>
    </g>
    <g id="Group_280" data-name="Group 280" transform="translate(-5466)">
      <g id="Group_276" data-name="Group 276">
        <g id="Group_275" data-name="Group 275">
          <g id="Group_274" data-name="Group 274">
            <path id="Path_630" data-name="Path 630" d="M6623.451,486.092a40.745,40.745,0,1,0-40.743,40.746A40.746,40.746,0,0,0,6623.451,486.092Z" fill="#d67a3d"/>
          </g>
        </g>
      </g>
      <g id="Group_279" data-name="Group 279">
        <rect id="Rectangle_143" data-name="Rectangle 143" width="10.683" height="32.104" transform="translate(6593.028 474.151)" fill="#fff"/>
        <rect id="Rectangle_144" data-name="Rectangle 144" width="10.684" height="18.365" transform="translate(6575.499 487.89)" fill="#fff"/>
        <rect id="Rectangle_145" data-name="Rectangle 145" width="10.683" height="8.398" transform="translate(6557.97 497.857)" fill="#fff"/>
        <g id="Group_277" data-name="Group 277">
          <path id="Path_631" data-name="Path 631" d="M6589.342,470.864a1,1,0,0,1-.709-1.708l7.041-7.049-7.041-7.047a1,1,0,1,1,1.418-1.414l7.748,7.753a1,1,0,0,1,0,1.415l-7.748,7.756a.991.991,0,0,1-.709.294Z" fill="#fff"/>
        </g>
        <g id="Group_278" data-name="Group 278">
          <path id="Path_632" data-name="Path 632" d="M6563.789,489.107a.924.924,0,0,1-.189-.018,1,1,0,0,1-.8-1.173,33.082,33.082,0,0,1,32.332-26.877,1,1,0,1,1,0,2,31.074,31.074,0,0,0-30.364,25.253,1,1,0,0,1-.982.812Z" fill="#fff"/>
        </g>
      </g>
    </g>
    <path id="Path_633" data-name="Path 633" d="M6546.274,739.07a13.8,13.8,0,1,1-13.8-13.8A13.8,13.8,0,0,1,6546.274,739.07Z" transform="translate(-5466)" fill="#006c85"/>
    <path id="Path_634" data-name="Path 634" d="M6267.826,661.074a11.039,11.039,0,1,1-11.039-11.04A11.04,11.04,0,0,1,6267.826,661.074Z" transform="translate(-5466)" fill="#d67a3d"/>
    <path id="Path_635" data-name="Path 635" d="M6271.376,462.483a11.591,11.591,0,1,1-11.589-11.591A11.589,11.589,0,0,1,6271.376,462.483Z" transform="translate(-5466)" fill="#006c85"/>
    <path id="Path_636" data-name="Path 636" d="M6396.959,654.577l-.017.079a1.205,1.205,0,1,0,.553-.648l-.161-.169-.16.169A1.82,1.82,0,0,0,6396.959,654.577Z" transform="translate(-5466)" fill="none"/>
    <path id="Path_637" data-name="Path 637" d="M6360.3,679.067l.042-.027-.042.025Z" transform="translate(-5466)" fill="none"/>
    <path id="Path_638" data-name="Path 638" d="M6360.295,679.065l.042-.025-.043.023a3.984,3.984,0,0,0-.581.362l.582-.358Z" transform="translate(-5466)" fill="#82bfab"/>
    <g id="Group_282" data-name="Group 282" transform="translate(-5466)">
      <path id="Path_639" data-name="Path 639" d="M6395.367,695.707a21.042,21.042,0,0,1-2.56-2.469l-9.279,5.744,3.275,2.029.9-.556a3.038,3.038,0,0,1,.653-.406Z" stroke="#006c85" stroke-miterlimit="10" stroke-width="1" fill="url(#linear-gradient-33)"/>
      <path id="Path_640" data-name="Path 640" d="M6389.421,687.986a21.28,21.28,0,0,1-1.19-3.318l-12.574,7.785-.379.233-.107.067.112-.061a17.356,17.356,0,0,0,2.454,2.529l.5-.309.916-.566Z" stroke="#006c85" stroke-miterlimit="10" stroke-width="1" fill="url(#linear-gradient-33)"/>
      <path id="Path_641" data-name="Path 641" d="M6387.577,677.724l9.767-6.046,0,.008,4.206-2.6.158-.1.251-.265a1.379,1.379,0,0,1-.314-1.087l.015-.063a1.484,1.484,0,0,1,.173-.455l.126-.135a1.388,1.388,0,0,1,1.78-.329l.043.027,12.014,7.5,2.413,1.507a3.037,3.037,0,1,0,3.3-5.091l-.085-.053-15.053-9.4-.008.008-.036-.025a21.517,21.517,0,0,0-15.666-2.7,20.522,20.522,0,0,0-2.55.713,21.262,21.262,0,0,0-2.2.913,6.237,6.237,0,0,1-4.538-.8l-3.357-2.079-13.163,21.264,3.051,1.886,1.9,1.175a6.237,6.237,0,0,1,1.911,3.263l.054.293c.084.446.2.885.318,1.325.074.265.16.527.244.788l.035-.018Z" stroke="#006c85" stroke-miterlimit="10" stroke-width="1" fill="url(#linear-gradient-33)"/>
      <path id="Path_642" data-name="Path 642" d="M6416.416,693.4l-.014,0,.007-.152a3.121,3.121,0,0,0-6.238-.153l-.01.152.01.149,0,.837V696.7l0,4.783v3.336l0,.03,0,.031v.417l.038-.025a3.105,3.105,0,0,0,6.162-.033h.027v-.253l.013-.137-.013-.136v-3.25l.025-.014V693.4Z" stroke="#006c85" stroke-miterlimit="10" stroke-width="1" fill="url(#linear-gradient-36)"/>
      <path id="Path_643" data-name="Path 643" d="M6406.72,698.043v-.063a3.132,3.132,0,0,0-6.25-.27l-.015.3.015.3V702.1l-1.78-1.1-5.937,3.677,3.275,2.025.9-.554.071-.042,3.473-2.152v7.35l.162-.1a3.1,3.1,0,0,0,6.045-.55h.026V710.4l.013-.136-.013-.137v-2.682l.016-.012v-5.516Z" stroke="#006c85" stroke-miterlimit="10" stroke-width="1" fill="url(#linear-gradient-33)"/>
      <path id="Path_644" data-name="Path 644" d="M6426.119,691.185l-.007-.068-.014-.126v-.486h-.059a3.126,3.126,0,0,0-3.048-2.453,3.09,3.09,0,0,0-1.33.308,3.132,3.132,0,0,0-1.719,2.145h-.061v.383l-.019.292,0,.113v.01l0,4.44v3.572l.019-.012v.5l-.014.131.014.133v.257h.028a3.1,3.1,0,0,0,6.163,0h.026v-.253l.014-.137-.014-.134v-4.5l.014-.01v-3.962Z" stroke="#006c85" stroke-miterlimit="10" stroke-width="1" fill="url(#linear-gradient-38)"/>
    </g>
    <g id="Group_283" data-name="Group 283" transform="translate(-5466)">
      <path id="Path_645" data-name="Path 645" d="M6425.907,657.165l-3.358,2.079a6.24,6.24,0,0,1-4.539.8,20.907,20.907,0,0,0-4.748-1.626,21.213,21.213,0,0,0-11.3.662,21.169,21.169,0,0,1,4.372,2.042l.036.025.008-.008,15.053,9.4.085.053a3.037,3.037,0,1,1-3.3,5.091l-2.413-1.507-12.014-7.5-.043-.027a1.388,1.388,0,0,0-1.78.329l.129.135a1.374,1.374,0,0,1-.129,1.6l-.251.265-.158.1-4.206,2.6,0-.008-9.767,6.046-15.211,9.417-.033.022-.466.286a3.135,3.135,0,0,0,3.3,5.3l.107-.067.379-.233,12.574-7.785a21.28,21.28,0,0,0,1.19,3.318l-10.272,6.36-.916.566a3.139,3.139,0,1,0,4.213,4.652l.045.062,1.037-.644,9.279-5.744a21.042,21.042,0,0,0,2.56,2.469l-7.012,4.342a3.038,3.038,0,0,0-.653.406,3.115,3.115,0,1,0,4.214,4.56l.094.121.743-.461L6398.69,701l1.78-1.1v-1.585l-.015-.3.015-.3a3.132,3.132,0,0,1,6.25.27v.063l0,3.873v5.516l3.448-2.134v-.417l0-.031,0-.03v-3.336l0-4.783v-2.463l0-.837-.01-.149.01-.152a3.123,3.123,0,0,1,3.115-2.973,3.131,3.131,0,0,1,3.123,3.126l-.007.152.014,0v8.047l3.446-2.135v-3.572l0-4.44v-.01l0-.113.019-.292v-.383h.061a3.132,3.132,0,0,1,1.719-2.145,3.09,3.09,0,0,1,1.33-.308,3.126,3.126,0,0,1,3.048,2.453h.059v.486l.014.126.007.068-.007.143v3.962a17.672,17.672,0,0,0,5.148-7.136,18.022,18.022,0,0,0,.9-3.108l.052-.293a6.25,6.25,0,0,1,1.912-3.263l1.9-1.175,3.049-1.886Z" stroke="#006c85" stroke-miterlimit="10" stroke-width="1" fill="url(#linear-gradient-33)"/>
      <path id="Path_646" data-name="Path 646" d="M6400.468,706.154v-2.2L6397,706.1l-.071.042a3.125,3.125,0,1,0,3.543,5.148v-5.14Z" stroke="#006c85" stroke-miterlimit="10" stroke-width="1" fill="url(#linear-gradient-40)"/>
    </g>
    <path id="Path_647" data-name="Path 647" d="M6362.234,679.044l-15.077-9.439,15.289-24.524,15.075,9.439Z" transform="translate(-5466)" fill="#006c85"/>
    <path id="Path_648" data-name="Path 648" d="M6362.166,671.456a1.9,1.9,0,1,1-1.9-1.9A1.9,1.9,0,0,1,6362.166,671.456Z" transform="translate(-5466)" fill="#fff"/>
    <path id="Path_649" data-name="Path 649" d="M6441.409,679.044l15.077-9.439L6441.2,645.081l-15.079,9.439Z" transform="translate(-5466)" fill="#006c85"/>
    <path id="Path_650" data-name="Path 650" d="M6441.475,671.456a1.9,1.9,0,1,0,1.9-1.9A1.9,1.9,0,0,0,6441.475,671.456Z" transform="translate(-5466)" fill="#fff"/>
  </g>
</svg>
