<?xml version="1.0"?>
<svg xmlns="http://www.w3.org/2000/svg" id="Layer_1" height="512px" viewBox="0 0 512 512" width="512px" data-name="Layer 1"><g><path d="m468.9 350.917h-28.432v-22.5a26.682 26.682 0 0 0 -26.653-26.652h-151.815v-106.079a76 76 0 1 0 -12 0v106.077h-151.815a26.682 26.682 0 0 0 -26.653 26.652v22.5h-28.432a26.029 26.029 0 0 0 -26 26v65.138a26.029 26.029 0 0 0 26 26h67.081a26.029 26.029 0 0 0 26-26v-65.136a26.029 26.029 0 0 0 -26-26h-26.649v-22.5a14.669 14.669 0 0 1 14.653-14.652h151.815v37.154h-27.54a26.029 26.029 0 0 0 -26 26v65.138a26.029 26.029 0 0 0 26 26h67.08a26.029 26.029 0 0 0 26-26v-65.14a26.029 26.029 0 0 0 -26-26h-27.54v-37.154h151.815a14.669 14.669 0 0 1 14.653 14.652v22.5h-26.649a26.029 26.029 0 0 0 -26 26v65.138a26.029 26.029 0 0 0 26 26h67.081a26.029 26.029 0 0 0 26-26v-65.136a26.029 26.029 0 0 0 -26-26zm-276.9-230.972a64 64 0 1 1 64 64 64.072 64.072 0 0 1 -64-64zm-67.819 256.972v65.138a14.017 14.017 0 0 1 -14 14h-67.081a14.016 14.016 0 0 1 -14-14v-65.138a14.015 14.015 0 0 1 14-14h67.081a14.016 14.016 0 0 1 14 14zm179.359 0v65.138a14.016 14.016 0 0 1 -14 14h-67.08a14.016 14.016 0 0 1 -14-14v-65.138a14.015 14.015 0 0 1 14-14h67.08a14.015 14.015 0 0 1 14 14zm179.36 65.138a14.016 14.016 0 0 1 -14 14h-67.081a14.017 14.017 0 0 1 -14-14v-65.138a14.016 14.016 0 0 1 14-14h67.081a14.015 14.015 0 0 1 14 14z" data-original="#000000" class="active-path" data-old_color="#000000" fill="#D67A3D"/><path d="m64.7 430.778a6 6 0 0 0 8.383 0l34.825-34a6 6 0 1 0 -8.383-8.586l-30.632 29.908-15.139-14.78a6 6 0 0 0 -8.383 8.586z" data-original="#000000" class="active-path" data-old_color="#000000" fill="#D67A3D"/><path d="m458.246 388.192-30.634 29.908-15.138-14.78a6 6 0 1 0 -8.383 8.586l19.33 18.871a6 6 0 0 0 8.383 0l34.825-34a6 6 0 0 0 -8.383-8.586z" data-original="#000000" class="active-path" data-old_color="#000000" fill="#D67A3D"/><path d="m234.3 430.677a6 6 0 0 0 8.484.1l13.116-12.807 12.809 13.12a6 6 0 0 0 8.586-8.383l-12.809-13.12 13.12-12.809a6 6 0 0 0 -8.383-8.586l-13.123 12.808-12.809-13.119a6 6 0 1 0 -8.586 8.383l12.809 13.119-13.114 12.809a6 6 0 0 0 -.1 8.485z" data-original="#000000" class="active-path" data-old_color="#000000" fill="#D67A3D"/></g> </svg>
